<svg id="Layer_1" enable-background="new 0 0 511.993 511.993" height="512" viewBox="0 0 511.993 511.993" width="512" xmlns="http://www.w3.org/2000/svg"><g><g><path d="m333.32 57-33.708-47.142c-2.175-3.041-6.695-3.041-8.87 0l-33.708 47.142c-22.19 31.033-.007 74.165 38.143 74.165 38.151-.001 60.333-43.132 38.143-74.165z" fill="#e1f1ff"/><path d="m52.514 317.512c5.307 4.639 12.252 7.452 19.856 7.452 9.948 0 18.77-4.814 24.268-12.239 1.996-2.695 6.019-2.695 8.014 0 5.498 7.425 14.32 12.239 24.268 12.239s18.771-4.814 24.268-12.239c1.995-2.695 6.019-2.695 8.014 0 5.498 7.425 14.32 12.239 24.268 12.239s18.77-4.814 24.268-12.239c1.995-2.695 6.019-2.695 8.014 0 5.498 7.425 14.319 12.239 24.268 12.239 4.043 0 7.899-.795 11.423-2.238l48.851 2.262-44.374-105.403-58.296-81.529c-6.571-9.189-20.23-9.189-26.8 0l-101.848 142.436c-8.485 11.867-14.815 24.32-19.179 37.02z" fill="#e1f1ff"/><path d="m242.02 322.964c-9.948 0-18.77-4.814-24.268-12.239-1.996-2.695-6.019-2.695-8.014 0-5.498 7.425-14.32 12.239-24.268 12.239s-18.771-4.814-24.268-12.239c-1.995-2.695-6.019-2.695-8.014 0-5.498 7.425-14.32 12.239-24.268 12.239s-18.771-4.814-24.268-12.239c-1.995-2.695-6.019-2.695-8.014 0-5.498 7.425-14.319 12.239-24.268 12.239-7.603 0-14.548-2.813-19.856-7.452-31.797 88.126 32.261 189.065 133.71 189.065 75.853 0 130.806-56.433 140.42-121.746l-25.209-59.882-47.992-2.223c-3.524 1.442-7.38 2.238-11.423 2.238z" fill="#cbe2ff"/><path d="m296.251 57 18.535-25.921-15.174-21.22c-2.175-3.041-6.695-3.041-8.87 0l-33.708 47.141c-22.19 31.033-.007 74.165 38.143 74.165 7.162 0 13.76-1.52 19.609-4.195-25.307-11.573-36.559-44.763-18.535-69.97z" fill="#bbdafc"/><path d="m52.514 317.512c5.307 4.639 12.252 7.452 19.856 7.452 9.948 0 18.77-4.814 24.268-12.239 1.996-2.695 6.019-2.695 8.014 0 5.498 7.425 14.32 12.239 24.268 12.239 2.031 0 4.012-.211 5.931-.593 4.318-15.07 11.338-29.881 21.347-43.878l72.637-101.584-29.21-40.852c-6.571-9.189-20.23-9.189-26.8 0l-101.849 142.435c-8.485 11.867-14.815 24.32-19.179 37.02z" fill="#bbdafc"/><path d="m186.223 504.577c15.106 0 29.379-2.244 42.633-6.345-73.536-22.723-115.635-102.744-93.358-176-2.119.472-4.318.732-6.58.732-9.948 0-18.771-4.814-24.268-12.239-1.995-2.695-6.019-2.695-8.014 0-5.498 7.425-14.319 12.239-24.268 12.239-7.603 0-14.548-2.813-19.856-7.452-31.795 88.126 32.263 189.065 133.711 189.065z" fill="#9dc6fb"/><circle cx="355.534" cy="274.575" fill="#9dc6fb" r="112.024"/><path d="m295.177 274.575c0-52.977 36.776-97.361 86.191-109.025-8.294-1.958-16.942-2.999-25.834-2.999-61.869 0-112.024 50.155-112.024 112.024s50.155 112.024 112.024 112.024c8.892 0 17.54-1.041 25.834-2.999-49.414-11.664-86.191-56.048-86.191-109.025z" fill="#80b4fb"/></g><g><path d="m343.549 109.065c9.362-18.205 7.782-39.859-4.125-56.512l-33.707-47.141c-5.156-7.211-15.914-7.22-21.072 0l-33.709 47.142c-11.907 16.652-13.487 38.307-4.125 56.512 20.218 39.309 76.513 39.323 96.738-.001zm-80.412-47.787 32.043-44.812 32.043 44.812c8.754 12.243 9.87 27.543 2.986 40.927-14.696 28.578-55.389 28.528-70.059 0-6.883-13.384-5.767-28.684 2.987-40.927z"/><path d="m178.927 142.333c3.585-5.013 11.016-5.01 14.599 0l17.803 24.897c2.409 3.37 7.096 4.148 10.463 1.738 3.369-2.409 4.147-7.094 1.738-10.463l-17.803-24.897c-9.546-13.352-29.45-13.358-39.001 0l-101.848 142.437c-69.909 97.769-.947 235.947 121.349 235.947 76.061 0 133.067-54.205 146.437-120.182 7.406 1.441 15.052 2.205 22.873 2.205 65.906 0 119.524-53.618 119.524-119.524 0-59.37-43.411-108.87-100.489-118.009-4.099-.658-7.938 2.13-8.591 6.22-.655 4.09 2.129 7.937 6.22 8.591 50.909 8.153 87.86 51.554 87.86 103.198 0 57.635-46.89 104.524-104.524 104.524-56.003 0-102.313-44.386-104.44-100.519-2.029-53.171 36.952-99.403 88.428-107.311 4.095-.629 6.903-4.458 6.274-8.552-.628-4.094-4.454-6.898-8.552-6.274-27.923 4.289-53.534 18.476-72.117 39.945-2.711 3.132-5.24 6.394-7.593 9.763l-13.645-19.083c-2.408-3.369-7.095-4.146-10.463-1.738-3.369 2.409-4.147 7.094-1.738 10.463l17.414 24.354c-8.393 16.403-13.093 35.188-13.093 54.427 0 13.452 2.273 27.358 7.186 40.833-8.067.409-15.036-3.228-19.417-9.147-2.346-3.167-6.098-5.058-10.036-5.058s-7.689 1.892-10.033 5.059c-9.093 12.28-27.386 12.281-36.48.001-2.345-3.168-6.097-5.06-10.035-5.06s-7.69 1.892-10.034 5.059c-9.096 12.281-27.39 12.281-36.481-.001-2.346-3.167-6.098-5.058-10.036-5.058s-7.689 1.892-10.033 5.059c-6.973 9.418-19.365 11.667-29.007 6.459 3.977-9.65 9.131-18.995 15.474-27.866zm-78.28 175.266c15.028 17.017 41.518 17.021 56.551.001 15.03 17.017 41.521 17.019 56.55-.001 8.607 9.748 22.118 14.779 35.734 12.043 14.511 27.928 39.124 48.707 68.641 58.394-11.572 58.221-61.355 108.956-131.897 108.956-92.226 0-152.427-88.365-129.532-170.028 15.16 6.937 33.001 3.038 43.953-9.365z"/><g><path d="m390.142 327.161c-14.405 0-26.125-11.72-26.125-26.125s11.72-26.125 26.125-26.125 26.125 11.72 26.125 26.125-11.72 26.125-26.125 26.125zm0-37.25c-6.135 0-11.125 4.99-11.125 11.125s4.99 11.125 11.125 11.125 11.125-4.99 11.125-11.125-4.991-11.125-11.125-11.125z"/></g><g><path d="m321.51 273.275c-14.405 0-26.125-11.72-26.125-26.125s11.72-26.125 26.125-26.125 26.125 11.72 26.125 26.125-11.72 26.125-26.125 26.125zm0-37.25c-6.135 0-11.125 4.99-11.125 11.125s4.99 11.125 11.125 11.125 11.125-4.99 11.125-11.125-4.99-11.125-11.125-11.125z"/></g><g><path d="m329.726 336.493c-1.105 0-2.228-.245-3.287-.764-3.722-1.818-5.264-6.31-3.445-10.031l53.661-109.796c1.818-3.724 6.311-5.267 10.031-3.445 3.722 1.818 5.264 6.311 3.445 10.031l-53.661 109.796c-1.301 2.662-3.969 4.209-6.744 4.209z"/></g></g></g></svg>