<?xml version="1.0" encoding="iso-8859-1"?><!-- Generator: Adobe Illustrator 19.0.0, SVG Export Plug-In . SVG Version: 6.00 Build 0)  --><svg version="1.1" id="Capa_1" xmlns="http://www.w3.org/2000/svg" xmlns:xlink="http://www.w3.org/1999/xlink" x="0px" y="0px"	 viewBox="0 0 512 512" style="enable-background:new 0 0 512 512;" xml:space="preserve"><path style="fill:#FFDE55;" d="M505.453,276.149l-29.252,40.264c-4.256,5.858-6.547,12.912-6.547,20.152l0.004,49.757	c0.001,14.861-9.573,28.031-23.711,32.613l-47.318,15.338c-6.907,2.24-12.926,6.614-17.188,12.494l-29.163,40.241	c-8.734,12.052-24.246,17.091-38.396,12.472l-47.247-15.423c-6.913-2.256-14.364-2.256-21.275,0l-47.247,15.423	c-14.148,4.618-29.662-0.42-38.396-12.471l-29.163-40.242c-4.261-5.88-10.279-10.254-17.188-12.494l-47.318-15.338	c-14.137-4.582-23.712-17.752-23.711-32.613l0.004-49.757c0.001-7.24-2.291-14.295-6.547-20.152L6.547,276.149	c-8.729-12.015-8.729-28.284,0-40.298l29.252-40.264c4.256-5.858,6.547-12.912,6.547-20.152l-0.005-49.758	c-0.001-14.861,9.573-28.031,23.711-32.613l47.318-15.338c6.907-2.24,12.926-6.614,17.188-12.494l29.163-40.241	c8.734-12.052,24.246-17.091,38.396-12.472l47.247,15.423c6.913,2.256,14.364,2.256,21.275,0l47.247-15.423	c14.148-4.618,29.662,0.42,38.396,12.471l29.163,40.242c4.261,5.88,10.279,10.254,17.188,12.494l47.318,15.338	c14.137,4.582,23.712,17.752,23.711,32.613l-0.004,49.757c-0.001,7.24,2.291,14.295,6.547,20.152l29.252,40.264	C514.182,247.865,514.182,264.134,505.453,276.149z"/><path style="fill:#FFCD00;" d="M171.177,256c0-110.932,70.222-205.461,168.639-241.565c-7.877-3.924-17.164-4.778-25.931-1.916	l-47.247,15.423c-6.913,2.256-14.363,2.256-21.275,0l-47.247-15.423c-14.148-4.618-29.662,0.42-38.396,12.472l-29.163,40.241	c-4.261,5.88-10.279,10.254-17.188,12.494L66.05,93.064c-14.137,4.582-23.712,17.752-23.711,32.613l0.004,49.757	c0.001,7.24-2.291,14.295-6.547,20.152L6.547,235.85c-8.729,12.015-8.729,28.284,0,40.298l29.252,40.264	c4.256,5.858,6.547,12.912,6.547,20.152l-0.005,49.758c-0.001,14.861,9.573,28.03,23.711,32.613l47.318,15.338	c6.907,2.24,12.926,6.614,17.188,12.494l29.163,40.242c8.734,12.051,24.246,17.091,38.396,12.471l47.247-15.423	c6.913-2.256,14.364-2.256,21.275,0l47.247,15.423c8.767,2.862,18.054,2.008,25.931-1.916	C241.399,461.46,171.177,366.932,171.177,256z"/><circle style="fill:#FFEB99;" cx="256" cy="256" r="172.401"/><g>	<path style="fill:#FFDE55;" d="M236.527,84.682C150.474,94.351,83.594,167.364,83.594,256s66.88,161.648,152.933,171.318		C195.886,381.829,171.177,321.799,171.177,256C171.177,190.2,195.885,130.17,236.527,84.682z"/>	<path style="fill:#FFDE55;" d="M378.939,203.265c-10.839-24.938-28.634-45.877-51.703-60.451c-3.608-2.28-4.684-7.052-2.405-10.659		c2.279-3.607,7.052-4.683,10.659-2.405c25.715,16.247,45.648,39.554,57.642,67.403c1.688,3.92-0.121,8.465-4.039,10.152		C388.096,207.734,381.665,209.535,378.939,203.265z"/></g><path style="fill:#57565C;" d="M236.303,309.685l-29.824-18.778c-10.582-6.663-14.414-20.567-8.132-31.379	c6.596-11.353,21.227-14.884,32.242-7.948l15.16,9.546c6.241,3.929,14.182,3.929,20.423,0l15.16-9.546	c10.781-6.788,25.018-3.551,31.806,7.228c6.787,10.779,3.55,25.019-7.229,31.806l-30.291,19.073	C263.606,317.249,248.317,317.249,236.303,309.685z"/><path style="fill:#FF737D;" d="M289.777,300.776c-4.352-11.036-17.82-19.082-33.769-19.082c-15.968,0-29.45,8.065-33.785,19.121	l14.087,8.87c12.014,7.565,27.303,7.565,39.318,0L289.777,300.776z"/><g>	<path style="fill:#57565C;" d="M339.09,264.067c-4.268,0-7.726-3.459-7.726-7.726v-12.826c0-4.267,3.458-7.726,7.726-7.726		s7.726,3.459,7.726,7.726v12.826C346.816,260.608,343.358,264.067,339.09,264.067z"/>	<path style="fill:#57565C;" d="M172.909,264.067c-4.268,0-7.726-3.459-7.726-7.726v-12.826c0-4.267,3.458-7.726,7.726-7.726		c4.268,0,7.726,3.459,7.726,7.726v12.826C180.636,260.608,177.177,264.067,172.909,264.067z"/></g><g>	<path style="fill:#FF737D;" d="M145.541,292.777h-20.516c-6.712,0-12.204-5.492-12.204-12.204l0,0		c0-6.712,5.492-12.204,12.204-12.204h20.516c6.712,0,12.204,5.492,12.204,12.204l0,0		C157.744,287.285,152.252,292.777,145.541,292.777z"/>	<path style="fill:#FF737D;" d="M386.976,292.777H366.46c-6.712,0-12.204-5.492-12.204-12.204l0,0		c0-6.712,5.492-12.204,12.204-12.204h20.516c6.712,0,12.204,5.492,12.204,12.204l0,0		C399.179,287.285,393.688,292.777,386.976,292.777z"/></g></svg>