<svg id="Capa_1" enable-background="new 0 0 512 512" height="512" viewBox="0 0 512 512" width="512" xmlns="http://www.w3.org/2000/svg"><g><g><path d="m493.787 338.652c-5.081-74.725 23.06-117.577-66.013-97.913-19.617 1.046-49.018 5.726-61.769 19.896-24.771 14.728-61.798 46.551-89.951 51.656-55.857 12.549-87.529-14.963-125.115-58.743-18.01-20.977-95.611-26.792-107.95 7.175-73.583 188.692-61.8 251.475 163.561 245.455 157.785-17.381 310.329 62.453 287.237-167.526z" fill="#ffb6bd"/><path d="m372.783 169.674c-32.741-71.284-18.128-30.393-38.66-66.211-82.749-144.36-212.05 102.544-126.389 180.517 97.237 88.51 200.523-17.202 165.049-114.306z" fill="#80aeff"/></g><g fill="#2e386b"><path d="m15.92 233.024c18.091 8.088 104.231 40.241 130.993 27.056 11.474 27.376 29.475 46.309 50.592 57.817-24.862 10.261-53.689 10.646-79.472 3.553-32.198-10.47-64.655-23.898-99.395-20.081-43.878 23.187 108.765 51.236 122.932 46.144 11.921 1.033 60.84-6.699 77.628-20.635 26.323 7.783 55.297 6.098 81.66-3.474.257.145.525.283.812.408 71.449 29.431 125.978 22.197 198.465 3.434 8.786-2.128 13.955-11.488 11.055-20.056-10.569-33.797-81.161 35.973-190.939 7.476 20.242-11.029 37.831-27.093 49.881-47.329 19.128 7.372 58.95-8.412 72.487-13.062 19.676-7.61 38.535-15.804 59.061-19.369 8.123-1.196 7.262-14.042-1.109-13.963-40.103-.702-78.296 21.224-117.989 17.287 8.037-28.917 5.969-63.455-11.455-102.07-8.878-20.613-54.044-99.79-77.637-95.04-10.043-11.88-19.114-24.612-29.287-36.581-2.792-3.316-7.833-3.637-11.019-.695-55.955 52.148-119.13 123.594-118.593 204.572 1.194 12.697 3.398 24.309 6.45 34.903-.268.132-.537.258-.798.419-43.839 6.978-65.919-32.129-105.618-32.166-6.348.115-12.924 1.034-19.044 4.023-7.337 3.4-7.153 14.278.339 17.429zm143.074-61.329c15.048-59.255 56.361-108.171 98.903-150.826 8.368 9.8 16.347 20.019 25.005 29.689-2.068 5.009-1.561 11.148 3.401 16.59 67.351 58.476 114.997 189.808 7.984 233.215-80.286 33.744-159.961-45.383-135.293-128.668z"/><path d="m498.617 459.435c-129.561 27.308-65.269 37.96-211.365 6.346-20.515-3.543-41.723-2.932-62.201.635-14.131 2.183-29.153 5.945-42.963 9.464-56.357 23.475-109.318-17.001-166.162-18.883-20.534-.778-21.644 30.809-.806 31.131 11.324.098 22.79 1.778 34.511 4.459 45.074 12.442 93.358 28.051 139.447 7.893 9.195-2.685 20.802-5.975 30.169-8.152 22.77-5.544 46.626-7.912 69.843-3.877 136.861 26.233 90.257 17.169 210.55-15.044 9.232-1.178 7.969-14.249-1.023-13.972z"/><path d="m279.146 379.581c-12.804-2.255-25.598-.52-37.683 2.695-86.479 38.074-136.193 19.648-222.994-2.328-15.088-3.337-19.507 20.282-3.884 22.323 70.709 10.624 143.859 39.17 213.273 6.365 10.894-3.618 22.254-7.146 33.495-7.909 99.165 22.691 139.016 20.453 235.96-1.046 8.796-1.515 14.553-10.267 12.452-18.947-8.18-38.287-102.616 40.516-230.619-1.153z"/></g></g></svg>