<svg id="Layer_1" enable-background="new 0 0 512 512" height="512" viewBox="0 0 512 512" width="512" xmlns="http://www.w3.org/2000/svg"><g><g><path d="m324.899 409.83c0 56.91-46.53 102.96-103.63 102.16-3.3-.05-6.56-.25-9.78-.61-50.41-5.57-90.1-48.25-90.92-99.91-.58-36.85 18.36-69.33 47.16-87.76v-268.71c0-15.19 6.15-28.94 16.11-38.89 7.43-7.43 16.97-12.74 27.64-14.96 3.63-.75 7.4-1.15 11.25-1.15 30.38 0 55 24.62 55 55v268.71c28.37 18.16 47.17 49.94 47.17 86.12z" fill="#dcf1ff"/><path d="m324.899 409.83c0 56.91-46.53 102.96-103.63 102.16-3.3-.05-6.56-.25-9.78-.61 51.13-5.59 90.91-48.93 90.91-101.55l-24.72-18.21c-14.11-10.4-22.45-26.89-22.45-44.43v-292.19c0-26.53-18.77-48.66-43.75-53.85 3.63-.75 7.4-1.15 11.25-1.15 30.38 0 55 24.62 55 55v268.71c28.37 18.16 47.17 49.94 47.17 86.12z" fill="#b6e5ff"/><path d="m302.399 409.83c0 21.49-8.43 41.64-23.73 56.73-15.03 14.82-34.87 22.94-55.98 22.94-.37 0-.73 0-1.1-.01-3.32-.05-6.59-.3-9.81-.76-38.1-5.35-68.09-38.31-68.71-77.61-.44-27.84 13.31-53.43 36.79-68.46 6.49-4.15 10.37-11.24 10.37-18.95v-46.21c0-4.14 3.36-7.5 7.5-7.5h50c4.14 0 7.5 3.36 7.5 7.5v46.21c0 7.71 3.88 14.8 10.37 18.95 23.04 14.75 36.8 39.86 36.8 67.17z" fill="#ff485e"/><path d="m302.399 409.83c0 21.49-8.43 41.64-23.73 56.73-15.03 14.82-34.87 22.94-55.98 22.94-.37 0-.73 0-1.1-.01-3.32-.05-6.59-.3-9.81-.76 16.91-2.32 32.53-9.98 44.89-22.17 15.3-15.09 23.73-35.24 23.73-56.73 0-27.31-13.76-52.42-36.8-67.17-6.49-4.15-10.37-11.24-10.37-18.95v-46.21c0-4.14-3.36-7.5-7.5-7.5h22c4.14 0 7.5 3.36 7.5 7.5v46.21c0 7.71 3.88 14.8 10.37 18.95 23.04 14.75 36.8 39.86 36.8 67.17z" fill="#d82356"/><g fill="#87c8f4"><path d="m202.837 78.057h44.893c4.142 0 7.5-3.357 7.5-7.5s-3.358-7.5-7.5-7.5h-44.893c-4.142 0-7.5 3.357-7.5 7.5s3.358 7.5 7.5 7.5z"/><path d="m247.73 92.438h-19.893c-4.142 0-7.5 3.357-7.5 7.5s3.358 7.5 7.5 7.5h19.893c4.142 0 7.5-3.357 7.5-7.5s-3.358-7.5-7.5-7.5z"/><path d="m247.73 121.82h-44.893c-4.142 0-7.5 3.357-7.5 7.5s3.358 7.5 7.5 7.5h44.893c4.142 0 7.5-3.357 7.5-7.5s-3.358-7.5-7.5-7.5z"/><path d="m247.73 151.202h-19.893c-4.142 0-7.5 3.357-7.5 7.5s3.358 7.5 7.5 7.5h19.893c4.142 0 7.5-3.357 7.5-7.5s-3.358-7.5-7.5-7.5z"/><path d="m247.73 180.584h-44.893c-4.142 0-7.5 3.357-7.5 7.5s3.358 7.5 7.5 7.5h44.893c4.142 0 7.5-3.357 7.5-7.5s-3.358-7.5-7.5-7.5z"/><path d="m247.73 209.966h-19.893c-4.142 0-7.5 3.357-7.5 7.5s3.358 7.5 7.5 7.5h19.893c4.142 0 7.5-3.357 7.5-7.5s-3.358-7.5-7.5-7.5z"/><path d="m247.73 239.348h-44.893c-4.142 0-7.5 3.357-7.5 7.5s3.358 7.5 7.5 7.5h44.893c4.142 0 7.5-3.357 7.5-7.5s-3.358-7.5-7.5-7.5z"/></g></g><g fill="#87c8f4"><path d="m383.944 176.43c4.142 0 7.5-3.357 7.5-7.5v-13.484c0-10.475-8.522-18.997-18.998-18.997h-35.445c-10.475 0-18.998 8.522-18.998 18.997v129.756c0 10.475 8.522 18.997 18.998 18.997h35.445c10.475 0 18.998-8.522 18.998-18.997v-13.485c0-4.143-3.358-7.5-7.5-7.5s-7.5 3.357-7.5 7.5v13.485c0 2.204-1.793 3.997-3.998 3.997h-35.445c-2.204 0-3.998-1.793-3.998-3.997v-129.756c0-2.204 1.793-3.997 3.998-3.997h35.445c2.204 0 3.998 1.793 3.998 3.997v13.484c0 4.143 3.358 7.5 7.5 7.5z"/><path d="m325.505 124.46c4.063 0 7.358-3.297 7.358-7.364s-3.294-7.364-7.358-7.364-7.358 3.297-7.358 7.364c.001 4.068 3.295 7.364 7.358 7.364z"/></g></g></svg>